<mxfile host="app.diagrams.net" agent="Mozilla/5.0 (X11; Ubuntu; Linux x86_64; rv:133.0) Gecko/20100101 Firefox/133.0" version="25.0.3">
  <diagram name="Page-1" id="9dsnU4tGrTuphLmpFMgU">
    <mxGraphModel dx="1570" dy="425" grid="1" gridSize="10" guides="1" tooltips="1" connect="1" arrows="1" fold="1" page="1" pageScale="1" pageWidth="850" pageHeight="1100" math="0" shadow="0">
      <root>
        <mxCell id="0" />
        <mxCell id="1" parent="0" />
        <mxCell id="eejdFi5xt-Zku0RiFZAs-1" value="INTERNET" style="ellipse;shape=cloud;whiteSpace=wrap;html=1;" vertex="1" parent="1">
          <mxGeometry x="330" width="160" height="130" as="geometry" />
        </mxCell>
        <mxCell id="eejdFi5xt-Zku0RiFZAs-2" value="" style="endArrow=classic;html=1;rounded=0;" edge="1" parent="1">
          <mxGeometry relative="1" as="geometry">
            <mxPoint x="410" y="130" as="sourcePoint" />
            <mxPoint x="410" y="250" as="targetPoint" />
          </mxGeometry>
        </mxCell>
        <mxCell id="eejdFi5xt-Zku0RiFZAs-3" value="&lt;div&gt;172.16.120.1/29&lt;/div&gt;&lt;div&gt;eth0&lt;br&gt;&lt;/div&gt;" style="edgeLabel;resizable=0;html=1;;align=center;verticalAlign=middle;" connectable="0" vertex="1" parent="eejdFi5xt-Zku0RiFZAs-2">
          <mxGeometry relative="1" as="geometry">
            <mxPoint y="40" as="offset" />
          </mxGeometry>
        </mxCell>
        <mxCell id="eejdFi5xt-Zku0RiFZAs-5" value="" style="shape=mxgraph.cisco.routers.router;sketch=0;html=1;pointerEvents=1;dashed=0;fillColor=#036897;strokeColor=#ffffff;strokeWidth=2;verticalLabelPosition=bottom;verticalAlign=top;align=center;outlineConnect=0;" vertex="1" parent="1">
          <mxGeometry x="371" y="260" width="78" height="53" as="geometry" />
        </mxCell>
        <mxCell id="eejdFi5xt-Zku0RiFZAs-6" value="Red Boundary Router&#xa;OS:linux&#xa;hostname: RED-SCR&#xa;Username: vyos&#xa;Password: password&#xa;open ports: 22,179&#xa;&#xa;&#xa;" style="text;whiteSpace=wrap;overflow=hidden;rounded=0;spacing=2;" vertex="1" parent="1">
          <mxGeometry x="470" y="198" width="180" height="92" as="geometry" />
        </mxCell>
        <mxCell id="eejdFi5xt-Zku0RiFZAs-8" value="c" style="endArrow=classic;html=1;rounded=0;exitX=0;exitY=0.5;exitDx=0;exitDy=0;exitPerimeter=0;" edge="1" parent="1" source="eejdFi5xt-Zku0RiFZAs-5">
          <mxGeometry relative="1" as="geometry">
            <mxPoint x="170" y="260" as="sourcePoint" />
            <mxPoint x="270" y="460" as="targetPoint" />
          </mxGeometry>
        </mxCell>
        <mxCell id="eejdFi5xt-Zku0RiFZAs-9" value="REDNET" style="edgeLabel;resizable=0;html=1;;align=center;verticalAlign=middle;" connectable="0" vertex="1" parent="eejdFi5xt-Zku0RiFZAs-8">
          <mxGeometry relative="1" as="geometry" />
        </mxCell>
        <mxCell id="eejdFi5xt-Zku0RiFZAs-10" value="&lt;div&gt;172.16.120.10/29&lt;/div&gt;&lt;div&gt;eth1&lt;br&gt;&lt;/div&gt;" style="edgeLabel;resizable=0;html=1;;align=left;verticalAlign=bottom;" connectable="0" vertex="1" parent="eejdFi5xt-Zku0RiFZAs-8">
          <mxGeometry x="-1" relative="1" as="geometry">
            <mxPoint x="-101" y="4" as="offset" />
          </mxGeometry>
        </mxCell>
        <mxCell id="eejdFi5xt-Zku0RiFZAs-11" value="&lt;div&gt;172.16.120.9&lt;/div&gt;&lt;div&gt;eth0&lt;br&gt;&lt;/div&gt;&lt;div&gt;&lt;br&gt;&lt;/div&gt;" style="edgeLabel;resizable=0;html=1;;align=right;verticalAlign=bottom;" connectable="0" vertex="1" parent="eejdFi5xt-Zku0RiFZAs-8">
          <mxGeometry x="1" relative="1" as="geometry" />
        </mxCell>
        <mxCell id="eejdFi5xt-Zku0RiFZAs-13" value="c" style="endArrow=classic;html=1;rounded=0;exitX=0.88;exitY=0.9;exitDx=0;exitDy=0;exitPerimeter=0;" edge="1" parent="1" source="eejdFi5xt-Zku0RiFZAs-5">
          <mxGeometry relative="1" as="geometry">
            <mxPoint x="470" y="340" as="sourcePoint" />
            <mxPoint x="629" y="510" as="targetPoint" />
          </mxGeometry>
        </mxCell>
        <mxCell id="eejdFi5xt-Zku0RiFZAs-14" value="DMZ" style="edgeLabel;resizable=0;html=1;;align=center;verticalAlign=middle;" connectable="0" vertex="1" parent="eejdFi5xt-Zku0RiFZAs-13">
          <mxGeometry relative="1" as="geometry">
            <mxPoint x="-5" y="11" as="offset" />
          </mxGeometry>
        </mxCell>
        <mxCell id="eejdFi5xt-Zku0RiFZAs-15" value="&lt;div&gt;172.16.101.30/27&lt;/div&gt;&lt;div&gt;eth2&lt;/div&gt;" style="edgeLabel;resizable=0;html=1;;align=left;verticalAlign=bottom;" connectable="0" vertex="1" parent="eejdFi5xt-Zku0RiFZAs-13">
          <mxGeometry x="-1" relative="1" as="geometry">
            <mxPoint x="20" y="12" as="offset" />
          </mxGeometry>
        </mxCell>
        <mxCell id="eejdFi5xt-Zku0RiFZAs-16" value="&lt;div&gt;172.16.101.2&lt;/div&gt;&lt;div&gt;eth0&lt;br&gt;&lt;/div&gt;" style="edgeLabel;resizable=0;html=1;;align=right;verticalAlign=bottom;" connectable="0" vertex="1" parent="eejdFi5xt-Zku0RiFZAs-13">
          <mxGeometry x="1" relative="1" as="geometry" />
        </mxCell>
        <mxCell id="eejdFi5xt-Zku0RiFZAs-17" value="" style="shape=mxgraph.cisco.computers_and_peripherals.pc;sketch=0;html=1;pointerEvents=1;dashed=0;fillColor=#036897;strokeColor=#ffffff;strokeWidth=2;verticalLabelPosition=bottom;verticalAlign=top;align=center;outlineConnect=0;" vertex="1" parent="1">
          <mxGeometry x="630" y="480" width="78" height="70" as="geometry" />
        </mxCell>
        <mxCell id="eejdFi5xt-Zku0RiFZAs-18" value="DMZ host&#xa;hostname: red-dmz-host-1&#xa;OS:linux&#xa;Username:net1_student15&#xa;Password:password15&#xa;open ports: 22, &#xa;&#xa;&#xa;" style="text;whiteSpace=wrap;overflow=hidden;rounded=0;spacing=2;" vertex="1" parent="1">
          <mxGeometry x="720" y="430" width="180" height="92" as="geometry" />
        </mxCell>
        <mxCell id="eejdFi5xt-Zku0RiFZAs-19" value="REDNET router&#xa;Hostname: RED-IPS&#xa;OS: linux&#xa;Username:vyos&#xa;Password:password&#xa;open ports: 22, &#xa;&#xa;" style="text;whiteSpace=wrap;overflow=hidden;rounded=0;spacing=2;" vertex="1" parent="1">
          <mxGeometry x="20" y="410" width="180" height="92" as="geometry" />
        </mxCell>
        <mxCell id="eejdFi5xt-Zku0RiFZAs-21" value="" style="shape=mxgraph.cisco.routers.router;sketch=0;html=1;pointerEvents=1;dashed=0;fillColor=#036897;strokeColor=#ffffff;strokeWidth=2;verticalLabelPosition=bottom;verticalAlign=top;align=center;outlineConnect=0;" vertex="1" parent="1">
          <mxGeometry x="200" y="460" width="78" height="53" as="geometry" />
        </mxCell>
        <mxCell id="eejdFi5xt-Zku0RiFZAs-23" value="c" style="endArrow=classic;html=1;rounded=0;exitX=0;exitY=0.5;exitDx=0;exitDy=0;exitPerimeter=0;" edge="1" parent="1">
          <mxGeometry relative="1" as="geometry">
            <mxPoint x="221" y="513" as="sourcePoint" />
            <mxPoint x="120" y="687" as="targetPoint" />
          </mxGeometry>
        </mxCell>
        <mxCell id="eejdFi5xt-Zku0RiFZAs-24" value="REDNET" style="edgeLabel;resizable=0;html=1;;align=center;verticalAlign=middle;" connectable="0" vertex="1" parent="eejdFi5xt-Zku0RiFZAs-23">
          <mxGeometry relative="1" as="geometry" />
        </mxCell>
        <mxCell id="eejdFi5xt-Zku0RiFZAs-25" value="&lt;div&gt;172.16.120.18/29&lt;/div&gt;&lt;div&gt;eth1&lt;br&gt;&lt;/div&gt;" style="edgeLabel;resizable=0;html=1;;align=left;verticalAlign=bottom;" connectable="0" vertex="1" parent="eejdFi5xt-Zku0RiFZAs-23">
          <mxGeometry x="-1" relative="1" as="geometry">
            <mxPoint x="-101" y="4" as="offset" />
          </mxGeometry>
        </mxCell>
        <mxCell id="eejdFi5xt-Zku0RiFZAs-27" value="&lt;div&gt;172.16.120.17&lt;/div&gt;&lt;div&gt;eth0&lt;br&gt;&lt;/div&gt;" style="edgeLabel;html=1;align=center;verticalAlign=middle;resizable=0;points=[];" vertex="1" connectable="0" parent="eejdFi5xt-Zku0RiFZAs-23">
          <mxGeometry x="0.7255" y="-1" relative="1" as="geometry">
            <mxPoint as="offset" />
          </mxGeometry>
        </mxCell>
        <mxCell id="eejdFi5xt-Zku0RiFZAs-28" value="REDNET router&#xa;Hostname:RED-POP&#xa;OS: linux&#xa;Username:vyos&#xa;Password:password&#xa;open ports:22 &#xa;&#xa;" style="text;whiteSpace=wrap;overflow=hidden;rounded=0;spacing=2;" vertex="1" parent="1">
          <mxGeometry x="210" y="630" width="180" height="92" as="geometry" />
        </mxCell>
        <mxCell id="eejdFi5xt-Zku0RiFZAs-29" value="" style="shape=mxgraph.cisco.routers.router;sketch=0;html=1;pointerEvents=1;dashed=0;fillColor=#036897;strokeColor=#ffffff;strokeWidth=2;verticalLabelPosition=bottom;verticalAlign=top;align=center;outlineConnect=0;" vertex="1" parent="1">
          <mxGeometry x="80" y="690" width="78" height="53" as="geometry" />
        </mxCell>
        <mxCell id="eejdFi5xt-Zku0RiFZAs-31" value="c" style="endArrow=classic;html=1;rounded=0;exitX=0;exitY=0.5;exitDx=0;exitDy=0;exitPerimeter=0;" edge="1" parent="1">
          <mxGeometry relative="1" as="geometry">
            <mxPoint x="80" y="720" as="sourcePoint" />
            <mxPoint x="-21" y="894" as="targetPoint" />
          </mxGeometry>
        </mxCell>
        <mxCell id="eejdFi5xt-Zku0RiFZAs-32" value="REDHOSTS" style="edgeLabel;resizable=0;html=1;;align=center;verticalAlign=middle;" connectable="0" vertex="1" parent="eejdFi5xt-Zku0RiFZAs-31">
          <mxGeometry relative="1" as="geometry" />
        </mxCell>
        <mxCell id="eejdFi5xt-Zku0RiFZAs-33" value="&lt;div&gt;172.16.182.126/27&lt;/div&gt;&lt;div&gt;eth1&lt;br&gt;&lt;/div&gt;" style="edgeLabel;resizable=0;html=1;;align=left;verticalAlign=bottom;" connectable="0" vertex="1" parent="eejdFi5xt-Zku0RiFZAs-31">
          <mxGeometry x="-1" relative="1" as="geometry">
            <mxPoint x="-101" y="4" as="offset" />
          </mxGeometry>
        </mxCell>
        <mxCell id="eejdFi5xt-Zku0RiFZAs-39" value="c" style="endArrow=classic;html=1;rounded=0;exitX=1;exitY=0.5;exitDx=0;exitDy=0;exitPerimeter=0;" edge="1" parent="1" source="eejdFi5xt-Zku0RiFZAs-29">
          <mxGeometry relative="1" as="geometry">
            <mxPoint x="361" y="800" as="sourcePoint" />
            <mxPoint x="340" y="960" as="targetPoint" />
          </mxGeometry>
        </mxCell>
        <mxCell id="eejdFi5xt-Zku0RiFZAs-40" value="REDINTDMZ" style="edgeLabel;resizable=0;html=1;;align=center;verticalAlign=middle;" connectable="0" vertex="1" parent="eejdFi5xt-Zku0RiFZAs-39">
          <mxGeometry relative="1" as="geometry" />
        </mxCell>
        <mxCell id="eejdFi5xt-Zku0RiFZAs-41" value="&lt;div&gt;172.16.140.6/29&lt;br&gt;&lt;/div&gt;&lt;div&gt;eth2&lt;br&gt;&lt;/div&gt;" style="edgeLabel;resizable=0;html=1;;align=left;verticalAlign=bottom;" connectable="0" vertex="1" parent="eejdFi5xt-Zku0RiFZAs-39">
          <mxGeometry x="-1" relative="1" as="geometry">
            <mxPoint x="32" y="64" as="offset" />
          </mxGeometry>
        </mxCell>
        <mxCell id="eejdFi5xt-Zku0RiFZAs-43" value="" style="shape=link;html=1;rounded=0;strokeWidth=5;" edge="1" parent="1">
          <mxGeometry width="100" relative="1" as="geometry">
            <mxPoint x="-370" y="900" as="sourcePoint" />
            <mxPoint y="900" as="targetPoint" />
          </mxGeometry>
        </mxCell>
        <mxCell id="eejdFi5xt-Zku0RiFZAs-44" value="" style="endArrow=classic;html=1;rounded=0;" edge="1" parent="1">
          <mxGeometry width="50" height="50" relative="1" as="geometry">
            <mxPoint x="-360" y="910" as="sourcePoint" />
            <mxPoint x="-420" y="1020" as="targetPoint" />
          </mxGeometry>
        </mxCell>
        <mxCell id="eejdFi5xt-Zku0RiFZAs-56" value="172.16.182.106" style="edgeLabel;html=1;align=center;verticalAlign=middle;resizable=0;points=[];" vertex="1" connectable="0" parent="eejdFi5xt-Zku0RiFZAs-44">
          <mxGeometry x="0.4848" y="-2" relative="1" as="geometry">
            <mxPoint as="offset" />
          </mxGeometry>
        </mxCell>
        <mxCell id="eejdFi5xt-Zku0RiFZAs-45" value="" style="endArrow=classic;html=1;rounded=0;" edge="1" parent="1">
          <mxGeometry width="50" height="50" relative="1" as="geometry">
            <mxPoint x="-240" y="910" as="sourcePoint" />
            <mxPoint x="-390" y="1180" as="targetPoint" />
          </mxGeometry>
        </mxCell>
        <mxCell id="eejdFi5xt-Zku0RiFZAs-57" value="172.16.182.110" style="edgeLabel;html=1;align=center;verticalAlign=middle;resizable=0;points=[];" vertex="1" connectable="0" parent="eejdFi5xt-Zku0RiFZAs-45">
          <mxGeometry x="0.6864" relative="1" as="geometry">
            <mxPoint as="offset" />
          </mxGeometry>
        </mxCell>
        <mxCell id="eejdFi5xt-Zku0RiFZAs-46" value="" style="endArrow=classic;html=1;rounded=0;" edge="1" parent="1">
          <mxGeometry width="50" height="50" relative="1" as="geometry">
            <mxPoint x="-110" y="910" as="sourcePoint" />
            <mxPoint x="-210" y="1090" as="targetPoint" />
          </mxGeometry>
        </mxCell>
        <mxCell id="eejdFi5xt-Zku0RiFZAs-58" value="172.16.182.114" style="edgeLabel;html=1;align=center;verticalAlign=middle;resizable=0;points=[];" vertex="1" connectable="0" parent="eejdFi5xt-Zku0RiFZAs-46">
          <mxGeometry x="0.6634" y="-2" relative="1" as="geometry">
            <mxPoint x="1" as="offset" />
          </mxGeometry>
        </mxCell>
        <mxCell id="eejdFi5xt-Zku0RiFZAs-47" value="172.16.182.118" style="endArrow=classic;html=1;rounded=0;" edge="1" parent="1">
          <mxGeometry x="0.1338" y="16" width="50" height="50" relative="1" as="geometry">
            <mxPoint y="910" as="sourcePoint" />
            <mxPoint x="-60" y="1020" as="targetPoint" />
            <mxPoint as="offset" />
          </mxGeometry>
        </mxCell>
        <mxCell id="eejdFi5xt-Zku0RiFZAs-48" value="" style="shape=mxgraph.cisco.computers_and_peripherals.pc;sketch=0;html=1;pointerEvents=1;dashed=0;fillColor=#036897;strokeColor=#ffffff;strokeWidth=2;verticalLabelPosition=bottom;verticalAlign=top;align=center;outlineConnect=0;" vertex="1" parent="1">
          <mxGeometry x="-78" y="1020" width="78" height="70" as="geometry" />
        </mxCell>
        <mxCell id="eejdFi5xt-Zku0RiFZAs-49" value="" style="shape=mxgraph.cisco.computers_and_peripherals.pc;sketch=0;html=1;pointerEvents=1;dashed=0;fillColor=#036897;strokeColor=#ffffff;strokeWidth=2;verticalLabelPosition=bottom;verticalAlign=top;align=center;outlineConnect=0;" vertex="1" parent="1">
          <mxGeometry x="-250" y="1100" width="78" height="70" as="geometry" />
        </mxCell>
        <mxCell id="eejdFi5xt-Zku0RiFZAs-50" value="" style="shape=mxgraph.cisco.computers_and_peripherals.pc;sketch=0;html=1;pointerEvents=1;dashed=0;fillColor=#036897;strokeColor=#ffffff;strokeWidth=2;verticalLabelPosition=bottom;verticalAlign=top;align=center;outlineConnect=0;" vertex="1" parent="1">
          <mxGeometry x="-450" y="1180" width="78" height="70" as="geometry" />
        </mxCell>
        <mxCell id="eejdFi5xt-Zku0RiFZAs-51" value="" style="shape=mxgraph.cisco.computers_and_peripherals.pc;sketch=0;html=1;pointerEvents=1;dashed=0;fillColor=#036897;strokeColor=#ffffff;strokeWidth=2;verticalLabelPosition=bottom;verticalAlign=top;align=center;outlineConnect=0;" vertex="1" parent="1">
          <mxGeometry x="-490" y="1010" width="78" height="70" as="geometry" />
        </mxCell>
        <mxCell id="eejdFi5xt-Zku0RiFZAs-52" value="REDNET T4 &#xa;Hostname:red-host-1&#xa;OS: linux&#xa;Username:net1_student15&#xa;Password:password15&#xa;open ports:22,&#xa;              &#xa;&#xa;" style="text;whiteSpace=wrap;overflow=hidden;rounded=0;spacing=2;" vertex="1" parent="1">
          <mxGeometry x="-700" y="928" width="210" height="172" as="geometry" />
        </mxCell>
        <mxCell id="eejdFi5xt-Zku0RiFZAs-53" value="REDNET T2&#xa;Hostname:&#xa;OS: linux&#xa;Username:&#xa;Password:&#xa;open ports:22,80, 1980.1982,1988,1989&#xa;              UDP:1984,1989&#xa;" style="text;whiteSpace=wrap;overflow=hidden;rounded=0;spacing=2;" vertex="1" parent="1">
          <mxGeometry x="-740" y="1170" width="280" height="170" as="geometry" />
        </mxCell>
        <mxCell id="eejdFi5xt-Zku0RiFZAs-54" value="REDNET T5&#xa;Hostname:red-host-3&#xa;OS: linux&#xa;Username:net1_student15&#xa;Password:password15&#xa;open ports:22&#xa;" style="text;whiteSpace=wrap;overflow=hidden;rounded=0;spacing=2;" vertex="1" parent="1">
          <mxGeometry x="-172" y="1169" width="180" height="92" as="geometry" />
        </mxCell>
        <mxCell id="eejdFi5xt-Zku0RiFZAs-55" value="REDNET T6&#xa;Hostname:red-host-4&#xa;OS: linux&#xa;Username:net15_student15&#xa;Password:password15&#xa;open ports:22&#xa;&#xa;" style="text;whiteSpace=wrap;overflow=hidden;rounded=0;spacing=2;" vertex="1" parent="1">
          <mxGeometry x="8" y="957" width="180" height="92" as="geometry" />
        </mxCell>
        <mxCell id="eejdFi5xt-Zku0RiFZAs-59" value="REDNET &#xa;Hostname: RED-POP2&#xa;OS: linux&#xa;Username:vyos&#xa;Password:password&#xa;open ports:22,&#xa;              &#xa;&#xa;" style="text;whiteSpace=wrap;overflow=hidden;rounded=0;spacing=2;" vertex="1" parent="1">
          <mxGeometry x="380" y="820" width="210" height="172" as="geometry" />
        </mxCell>
        <mxCell id="eejdFi5xt-Zku0RiFZAs-60" value="" style="shape=mxgraph.cisco.routers.router;sketch=0;html=1;pointerEvents=1;dashed=0;fillColor=#036897;strokeColor=#ffffff;strokeWidth=2;verticalLabelPosition=bottom;verticalAlign=top;align=center;outlineConnect=0;" vertex="1" parent="1">
          <mxGeometry x="312" y="957" width="78" height="53" as="geometry" />
        </mxCell>
        <mxCell id="eejdFi5xt-Zku0RiFZAs-61" value="c" style="endArrow=classic;html=1;rounded=0;" edge="1" parent="1">
          <mxGeometry relative="1" as="geometry">
            <mxPoint x="360" y="1030" as="sourcePoint" />
            <mxPoint x="500" y="1090" as="targetPoint" />
          </mxGeometry>
        </mxCell>
        <mxCell id="eejdFi5xt-Zku0RiFZAs-62" value="REDINTDMZ2" style="edgeLabel;resizable=0;html=1;;align=center;verticalAlign=middle;" connectable="0" vertex="1" parent="eejdFi5xt-Zku0RiFZAs-61">
          <mxGeometry relative="1" as="geometry" />
        </mxCell>
        <mxCell id="eejdFi5xt-Zku0RiFZAs-63" value="&lt;div&gt;172.16.140.62/27&lt;/div&gt;&lt;div&gt;eth1&lt;br&gt;&lt;/div&gt;" style="edgeLabel;resizable=0;html=1;;align=left;verticalAlign=bottom;" connectable="0" vertex="1" parent="eejdFi5xt-Zku0RiFZAs-61">
          <mxGeometry x="-1" relative="1" as="geometry">
            <mxPoint x="-101" y="4" as="offset" />
          </mxGeometry>
        </mxCell>
        <mxCell id="eejdFi5xt-Zku0RiFZAs-64" value="" style="shape=link;html=1;rounded=0;strokeWidth=5;" edge="1" parent="1">
          <mxGeometry width="100" relative="1" as="geometry">
            <mxPoint x="490" y="1100" as="sourcePoint" />
            <mxPoint x="860" y="1100" as="targetPoint" />
          </mxGeometry>
        </mxCell>
        <mxCell id="eejdFi5xt-Zku0RiFZAs-66" value="172.16.140.33" style="endArrow=classic;html=1;rounded=0;" edge="1" parent="1">
          <mxGeometry x="0.1338" y="16" width="50" height="50" relative="1" as="geometry">
            <mxPoint x="538" y="1110" as="sourcePoint" />
            <mxPoint x="478" y="1220" as="targetPoint" />
            <mxPoint as="offset" />
          </mxGeometry>
        </mxCell>
        <mxCell id="eejdFi5xt-Zku0RiFZAs-67" value="" style="shape=mxgraph.cisco.computers_and_peripherals.pc;sketch=0;html=1;pointerEvents=1;dashed=0;fillColor=#036897;strokeColor=#ffffff;strokeWidth=2;verticalLabelPosition=bottom;verticalAlign=top;align=center;outlineConnect=0;" vertex="1" parent="1">
          <mxGeometry x="460" y="1220" width="78" height="70" as="geometry" />
        </mxCell>
        <mxCell id="eejdFi5xt-Zku0RiFZAs-68" value="172.16.140.35" style="endArrow=classic;html=1;rounded=0;" edge="1" parent="1">
          <mxGeometry x="0.1338" y="16" width="50" height="50" relative="1" as="geometry">
            <mxPoint x="728" y="1110" as="sourcePoint" />
            <mxPoint x="668" y="1220" as="targetPoint" />
            <mxPoint as="offset" />
          </mxGeometry>
        </mxCell>
        <mxCell id="eejdFi5xt-Zku0RiFZAs-69" value="" style="shape=mxgraph.cisco.computers_and_peripherals.pc;sketch=0;html=1;pointerEvents=1;dashed=0;fillColor=#036897;strokeColor=#ffffff;strokeWidth=2;verticalLabelPosition=bottom;verticalAlign=top;align=center;outlineConnect=0;" vertex="1" parent="1">
          <mxGeometry x="650" y="1220" width="78" height="70" as="geometry" />
        </mxCell>
        <mxCell id="eejdFi5xt-Zku0RiFZAs-70" value="REDNET T3&#xa;Hostname:&#xa;OS: linux&#xa;Username:&#xa;Password:&#xa;open ports:22.80&#xa;        UDP:2000,2011,2200,2250,2999&#xa;&#xa;" style="text;whiteSpace=wrap;overflow=hidden;rounded=0;spacing=2;" vertex="1" parent="1">
          <mxGeometry x="409" y="1300" width="221" height="120" as="geometry" />
        </mxCell>
        <mxCell id="eejdFi5xt-Zku0RiFZAs-71" value="REDNET T7&#xa;Hostname:red-int-dmz2-host-2&#xa;OS: linux&#xa;Username:net15_student15&#xa;Password:password15&#xa;open ports:22&#xa;&#xa;" style="text;whiteSpace=wrap;overflow=hidden;rounded=0;spacing=2;" vertex="1" parent="1">
          <mxGeometry x="680" y="1300" width="180" height="92" as="geometry" />
        </mxCell>
      </root>
    </mxGraphModel>
  </diagram>
</mxfile>
